<svg width="450" height="333" viewBox="0 0 450 333" fill="none" xmlns="http://www.w3.org/2000/svg">
<path d="M376.589 273.87C376.798 281.745 373.081 289.457 367.039 294.511C366.289 295.136 364.327 296.22 363.877 296.811C363.627 297.141 363.106 299.991 362.81 300.761C358.16 312.924 343.527 314.878 333.681 307.953C330.198 311.199 325.91 313.424 321.21 314.132C309.319 315.932 298.135 308.299 295.494 296.52C295.331 295.795 295.135 293.499 294.889 293.07C294.598 292.557 293.773 291.841 293.356 291.282C282.314 276.328 288.002 256.036 305.923 249.97C311.548 228.207 338.223 223.211 352.394 240.186C355.16 243.499 357.027 247.636 357.973 251.811C368.564 253.77 376.302 263.199 376.585 273.87H376.589Z" fill="white"/>
<path d="M367.04 285.053C366.29 285.678 364.327 286.761 363.877 287.353C363.627 287.682 363.107 290.532 362.811 291.303C358.161 303.465 343.527 305.42 333.682 298.495C330.198 301.74 325.911 303.965 321.215 304.674C309.323 306.474 298.14 298.84 295.498 287.061C295.336 286.336 295.14 284.04 294.894 283.611C294.603 283.099 293.777 282.382 293.361 281.824C290.611 278.099 288.898 274.04 288.157 269.953C286.869 276.978 288.469 284.653 293.361 291.286C293.773 291.845 294.598 292.565 294.894 293.074C295.14 293.503 295.336 295.799 295.498 296.524C298.14 308.303 309.323 315.936 321.215 314.136C325.915 313.424 330.202 311.203 333.682 307.957C343.523 314.878 358.157 312.928 362.811 300.765C363.107 299.995 363.627 297.145 363.877 296.815C364.327 296.224 366.29 295.145 367.04 294.515C373.082 289.461 376.798 281.749 376.59 273.874C376.552 272.495 376.39 271.14 376.115 269.815C374.944 275.707 371.682 281.165 367.04 285.053Z" fill="#F2F0F0"/>
<path d="M288.007 243.811C280.173 237.445 289.865 225.491 297.773 231.824C305.603 238.095 296.002 250.311 288.007 243.811Z" fill="white"/>
<path d="M374.062 311.011C367.079 304.728 376.266 294.003 383.312 299.361C391.987 305.957 381.504 317.707 374.062 311.011Z" fill="white"/>
<path d="M374.061 309.127C372.603 307.815 371.857 306.311 371.645 304.798C371.353 306.902 371.995 309.152 374.061 311.01C379.807 316.181 387.37 310.352 386.516 304.39C385.782 309.585 379.195 313.752 374.061 309.127Z" fill="#F2F0F0"/>
<path d="M306.312 223.511C298.791 218.198 307.812 208.003 313.941 213.994C319.32 219.257 312.003 227.528 306.312 223.511Z" fill="white"/>
<path d="M288.007 241.928C286.282 240.528 285.407 238.853 285.173 237.165C284.873 239.453 285.636 241.886 288.007 243.811C294.232 248.869 301.428 242.59 300.619 236.599C299.928 241.899 293.582 246.457 288.007 241.928Z" fill="#F2F0F0"/>
<path d="M306.311 221.628C304.644 220.453 303.794 219.036 303.54 217.611C303.198 219.62 303.906 221.815 306.311 223.511C310.906 226.757 316.561 221.982 315.731 217.253C315.061 221.232 310.29 224.436 306.311 221.628Z" fill="#F2F0F0"/>
<path d="M352.12 184.243C348.878 188.143 344.687 191.514 339.987 193.531C315.903 203.856 290.407 184.26 296.145 158.248C280.47 142.218 285.353 117.731 305.045 107.86C305.782 107.489 307.041 107.177 307.624 106.793C308.112 106.473 309.553 104.152 310.112 103.473C319.228 92.4476 335.141 90.3892 346.737 98.6725C351.32 101.948 354.653 106.598 356.591 111.893C370.703 109.864 385.116 119.781 383.499 135.131C383.395 136.102 382.42 139.393 382.507 139.877C382.666 140.743 384.157 142.939 384.616 144.002C388.287 152.585 388.07 162.727 383.624 170.935C377.599 182.056 364.362 187.86 352.12 184.243Z" fill="white"/>
<path d="M384.61 144.002C384.156 142.935 382.66 140.739 382.502 139.877C382.414 139.398 383.394 136.106 383.494 135.131C384.306 127.423 381.073 121.085 375.864 116.943C377.418 120.148 378.139 123.864 377.71 127.973C377.606 128.943 376.631 132.235 376.719 132.718C376.877 133.585 378.368 135.781 378.827 136.843C382.498 145.427 382.281 155.568 377.835 163.777C371.81 174.898 358.573 180.702 346.331 177.085C343.089 180.985 338.898 184.356 334.198 186.373C321.352 191.881 308.106 188.873 299.41 180.923C306.956 193.889 323.789 200.473 339.981 193.531C344.681 191.514 348.873 188.148 352.114 184.243C364.356 187.86 377.589 182.056 383.618 170.935C388.064 162.727 388.277 152.585 384.61 144.002Z" fill="#F2F0F0"/>
<path d="M287.839 106.702C276.081 109.148 272.26 91.3144 283.956 88.7936C295.898 86.2186 299.477 104.281 287.839 106.702Z" fill="white"/>
<path d="M287.84 103.502C281.715 104.777 277.744 100.548 276.998 95.8438C276.057 101.552 280.327 108.26 287.84 106.702C293.444 105.535 295.519 100.748 294.832 96.377C294.302 99.6562 292.082 102.619 287.84 103.502Z" fill="#F2F0F0"/>
<path d="M378.363 105.427C368.042 107.302 364.096 91.0437 374.846 88.1562C386.301 85.0771 391.071 103.119 378.363 105.427Z" fill="white"/>
<path d="M378.363 102.227C372.972 103.206 369.326 99.2355 368.601 94.8105C367.676 100.252 371.68 106.644 378.363 105.427C384.426 104.323 386.509 99.6439 385.788 95.3814C385.226 98.5522 382.917 101.398 378.363 102.227Z" fill="#F2F0F0"/>
<path d="M271.619 131.894C261.927 134.935 257.873 119.319 268.669 117.748C276.84 116.556 280.127 129.227 271.619 131.894Z" fill="white"/>
<path d="M271.619 128.693C266.669 130.247 263.19 126.931 262.411 123.102C261.377 127.918 265.298 133.877 271.619 131.893C275.782 130.589 277.115 126.889 276.44 123.593C275.965 125.814 274.448 127.806 271.619 128.693Z" fill="#F2F0F0"/>
<path d="M374.467 208.144C364.775 211.185 360.721 195.569 371.517 193.998C379.688 192.806 382.975 205.477 374.467 208.144Z" fill="white"/>
<path d="M374.467 204.943C369.517 206.497 366.038 203.181 365.258 199.352C364.225 204.168 368.146 210.127 374.467 208.143C378.629 206.839 379.963 203.139 379.288 199.843C378.813 202.064 377.296 204.056 374.467 204.943Z" fill="#F2F0F0"/>
<path d="M144.334 295.069C125.68 289.282 110.534 274.402 103.48 256.186C102.605 253.927 101.634 248.452 100.605 246.927C100.034 246.082 93.7551 242.582 92.1801 241.273C67.3301 220.657 74.4134 184.74 98.5134 167.144C93.6676 156.382 91.8676 144.54 93.9426 132.94C99.1967 103.586 126.034 83.4107 155.801 86.594C157.63 86.7899 163.176 88.1607 164.38 87.9274C165.813 87.6524 168.159 86.2815 169.801 85.7565C213.718 71.7565 256.826 101.282 256.784 148.198C303.401 178.757 293.863 245.373 242.709 265.111C232.722 268.965 221.522 270.044 210.963 268.94C197.922 292.248 169.613 302.902 144.334 295.057V295.069Z" fill="white"/>
<path d="M285.442 188.719C283.871 213.165 268.45 236.785 241.346 247.244C231.359 251.098 220.159 252.177 209.6 251.073C196.559 274.381 168.25 285.035 142.971 277.19C124.317 271.402 109.171 256.523 102.117 238.306C101.242 236.048 100.271 230.573 99.2419 229.048C98.6711 228.202 92.3919 224.702 90.8169 223.394C83.7419 217.527 79.2627 210.419 77.0169 202.848C75.2627 216.673 79.6836 230.906 92.1752 241.273C93.7502 242.577 100.025 246.077 100.6 246.927C101.629 248.452 102.6 253.927 103.475 256.185C110.525 274.398 125.675 289.281 144.329 295.069C169.609 302.915 197.917 292.26 210.959 268.952C221.513 270.056 232.717 268.973 242.704 265.123C276.434 252.11 292.063 218.719 285.442 188.719Z" fill="#F2F0F0"/>
<path d="M147.119 22.1565C168.31 8.83982 188.656 41.1232 167.477 54.6482C146.514 68.0357 125.477 35.7565 147.119 22.1565Z" fill="white"/>
<path d="M167.476 49.9396C153.639 58.7771 139.772 47.7146 138.168 35.2646C136.301 49.3438 151.905 64.5938 167.476 54.648C174.693 50.0397 177.085 43.2522 176.268 36.8355C175.63 41.7147 172.939 46.4521 167.476 49.9396Z" fill="#F2F0F0"/>
<path d="M36.476 158.29C56.7969 146.907 74.651 177.019 56.4552 189.294C34.0469 204.407 14.8219 170.419 36.476 158.29Z" fill="white"/>
<path d="M56.4557 184.59C41.9057 194.403 28.7057 183.515 27.1557 171.353C25.3307 185.086 40.0348 200.373 56.4557 189.298C62.589 185.161 64.6223 178.998 63.8515 173.082C63.2598 177.411 60.964 181.548 56.4557 184.59Z" fill="#F2F0F0"/>
<path d="M222.185 285.715C240.652 272.294 257.402 301.603 238.448 311.211C221.806 319.648 208.214 295.873 222.185 285.715Z" fill="white"/>
<path d="M238.447 307.444C227.393 313.048 217.689 304.435 216.51 295.048C215.118 305.656 225.918 317.56 238.447 311.21C245.114 307.831 247.36 302.01 246.672 296.473C246.118 300.752 243.61 304.827 238.447 307.444Z" fill="#F2F0F0"/>
</svg>
