<svg width="188" height="42" viewBox="0 0 188 42" fill="none" xmlns="http://www.w3.org/2000/svg">
<path d="M166.94 0.0703125H21.1068C9.60084 0.0703125 0.273438 9.39771 0.273438 20.9036C0.273438 32.4096 9.60084 41.737 21.1068 41.737H166.94C178.446 41.737 187.773 32.4096 187.773 20.9036C187.773 9.39771 178.446 0.0703125 166.94 0.0703125Z" fill="#02B14F"/>
<path d="M40.9322 17.7544C39.628 17.7544 38.8029 18.421 38.8029 19.3252C38.7988 20.3419 39.903 20.7294 40.7321 20.9419L41.7697 21.2127C43.1155 21.546 44.8238 22.2836 44.8238 24.1961C44.8238 25.9961 43.3905 27.3044 40.8946 27.3044C38.3988 27.3044 37.028 26.1169 36.9238 24.1961H38.528C38.6197 25.3503 39.6488 25.9002 40.8822 25.9002C42.2447 25.9002 43.2363 25.2169 43.2363 24.1794C43.2363 23.2378 42.3613 22.8627 41.2238 22.5627L39.9696 22.221C38.2655 21.7585 37.2071 20.896 37.2071 19.4168C37.2071 17.5877 38.8405 16.3711 40.9696 16.3711C43.0988 16.3711 44.628 17.6043 44.6738 19.3043H43.128C43.0155 18.3252 42.1488 17.7544 40.9322 17.7544Z" fill="white"/>
<path d="M48.1496 27.1281H46.5996V16.5156H48.1287V20.4656H48.2288C48.6038 19.6073 49.3496 19.0657 50.5871 19.0657C52.2246 19.0657 53.3121 20.0823 53.3121 22.0657V27.1281H51.7621V22.2531C51.7621 21.0865 51.1246 20.4073 50.0579 20.4073C48.9912 20.4073 48.1496 21.1323 48.1496 22.4032V27.1281Z" fill="white"/>
<path d="M55.0041 24.8755C55.0041 23.0672 56.55 22.6714 58.0541 22.4964C59.4833 22.3297 60.0666 22.3422 60.0666 21.7755V21.738C60.0666 20.838 59.5541 20.313 58.5541 20.313C57.5541 20.313 56.9333 20.8588 56.7042 21.4213L55.2458 21.088C55.7625 19.638 57.0917 19.0547 58.5292 19.0547C59.7917 19.0547 61.6166 19.5172 61.6166 21.8338V27.1171H60.1042V26.0297H60.0417C59.7458 26.6255 59.0041 27.2922 57.6875 27.2922C56.175 27.2922 55 26.4338 55 24.8672L55.0041 24.8755ZM60.0708 24.2547V23.2297C59.8458 23.4505 58.6541 23.588 58.1541 23.6547C57.2583 23.7755 56.5208 24.0714 56.5208 24.8964C56.5208 25.663 57.1541 26.0589 58.0291 26.0589C59.3208 26.0589 60.0708 25.2005 60.0708 24.2547Z" fill="white"/>
<path d="M63.6777 19.1677H65.1736V20.4302H65.2569C65.5486 19.5761 66.3444 19.0469 67.2777 19.0469C67.4736 19.0469 67.7819 19.0636 67.9361 19.0844V20.5677C67.8111 20.5302 67.4486 20.476 67.1277 20.476C66.0277 20.476 65.2277 21.226 65.2277 22.2677V27.1302H63.6777V19.1719V19.1677Z" fill="white"/>
<path d="M68.6328 23.1997C68.6328 20.7539 70.0953 19.0664 72.312 19.0664C74.1161 19.0664 75.8369 20.1913 75.8369 23.0663V23.6164H70.1786C70.2203 25.1497 71.112 26.0122 72.437 26.0122C73.3161 26.0122 73.9912 25.6289 74.2703 24.8789L75.7369 25.1413C75.3828 26.4372 74.1578 27.2914 72.4203 27.2914C70.0745 27.2914 68.6328 25.6747 68.6328 23.2039V23.1997ZM74.3162 22.4539C74.312 21.2372 73.5245 20.3455 72.3203 20.3455C71.1161 20.3455 70.2411 21.3247 70.1786 22.4539H74.312H74.3162Z" fill="white"/>
<path d="M85.1369 20.4117H83.5035V24.7909C83.5035 25.6867 83.9535 25.8534 84.4577 25.8534C84.7077 25.8534 84.8993 25.8075 85.0035 25.7867L85.2827 27.0659C85.0994 27.1326 84.7702 27.2284 84.2785 27.2325C83.0577 27.2575 81.9535 26.5576 81.9577 25.1118V20.4117H80.791V19.1701H81.9577V17.2617H83.5077V19.1701H85.141V20.4117H85.1369Z" fill="white"/>
<path d="M88.5578 27.1281H87.0078V16.5156H88.537V20.4656H88.637C89.012 19.6073 89.7578 19.0657 90.9953 19.0657C92.6328 19.0657 93.7203 20.0823 93.7203 22.0657V27.1281H92.1703V22.2531C92.1703 21.0865 91.5328 20.4073 90.4662 20.4073C89.3995 20.4073 88.5578 21.1323 88.5578 22.4032V27.1281Z" fill="white"/>
<path d="M95.5859 17.0151C95.5859 16.5068 96.0276 16.0859 96.5651 16.0859C97.1026 16.0859 97.5443 16.5068 97.5443 17.0151C97.5443 17.5234 97.0984 17.936 96.5651 17.936C96.0318 17.936 95.5859 17.5193 95.5859 17.0151ZM95.7818 19.1652H97.3318V27.1234H95.7818V19.1652Z" fill="white"/>
<path d="M103.975 21.3622C103.792 20.8289 103.35 20.2956 102.383 20.2956C101.504 20.2956 100.837 20.7289 100.846 21.3414C100.842 21.8789 101.221 22.1747 102.096 22.3831L103.358 22.6747C104.821 23.0122 105.533 23.708 105.533 24.8288C105.533 26.2705 104.2 27.2914 102.279 27.2914C100.492 27.2914 99.3208 26.4997 99.0625 25.0872L100.558 24.858C100.746 25.6414 101.342 26.0414 102.267 26.0414C103.283 26.0414 103.942 25.558 103.942 24.9413C103.942 24.4455 103.583 24.1039 102.817 23.933L101.471 23.6372C99.9791 23.3039 99.2958 22.5539 99.2958 21.4247C99.2958 20.0164 100.571 19.0664 102.367 19.0664C104.162 19.0664 105.054 19.8747 105.379 21.1122L103.975 21.3622Z" fill="white"/>
<path d="M110.732 23.1997C110.732 20.7539 112.195 19.0664 114.412 19.0664C116.216 19.0664 117.937 20.1913 117.937 23.0663V23.6164H112.278C112.32 25.1497 113.212 26.0122 114.537 26.0122C115.416 26.0122 116.091 25.6289 116.37 24.8789L117.837 25.1413C117.482 26.4372 116.257 27.2914 114.52 27.2914C112.174 27.2914 110.732 25.6747 110.732 23.2039V23.1997ZM116.416 22.4539C116.412 21.2372 115.624 20.3455 114.42 20.3455C113.216 20.3455 112.341 21.3247 112.278 22.4539H116.412H116.416Z" fill="white"/>
<path d="M123.445 20.4112H121.729V27.1278H120.174V20.4112H118.945V19.1696H120.174V18.2487C120.174 16.7571 121.279 16.0195 122.537 16.0195C123.162 16.0195 123.616 16.1487 123.833 16.232L123.47 17.4862C123.324 17.4404 123.095 17.3654 122.774 17.3654C122.016 17.3654 121.729 17.7487 121.729 18.4529V19.1696H123.445V20.4112Z" fill="white"/>
<path d="M128.824 20.4112H127.108V27.1278H125.553V20.4112H124.324V19.1696H125.553V18.2487C125.553 16.7571 126.658 16.0195 127.916 16.0195C128.541 16.0195 128.995 16.1487 129.212 16.232L128.849 17.4862C128.703 17.4404 128.474 17.3654 128.153 17.3654C127.395 17.3654 127.108 17.7487 127.108 18.4529V19.1696H128.824V20.4112Z" fill="white"/>
<path d="M129.744 23.1833C129.744 20.7083 131.211 19.0625 133.452 19.0625C135.694 19.0625 137.161 20.7041 137.161 23.1833C137.161 25.6625 135.694 27.2875 133.452 27.2875C131.211 27.2875 129.744 25.6458 129.744 23.1833ZM135.598 23.1791C135.598 21.6541 134.915 20.3624 133.457 20.3624C131.998 20.3624 131.307 21.6583 131.307 23.1791C131.307 24.7 131.99 25.9874 133.457 25.9874C134.923 25.9874 135.598 24.7083 135.598 23.1791Z" fill="white"/>
<path d="M138.887 19.1677H140.383V20.4302H140.466C140.758 19.5761 141.553 19.0469 142.487 19.0469C142.683 19.0469 142.991 19.0636 143.145 19.0844V20.5677C143.02 20.5302 142.658 20.476 142.337 20.476C141.237 20.476 140.437 21.226 140.437 22.2677V27.1302H138.887V19.1719V19.1677Z" fill="white"/>
<path d="M148.67 20.4117H147.037V24.7909C147.037 25.6867 147.487 25.8534 147.991 25.8534C148.241 25.8534 148.433 25.8075 148.537 25.7867L148.816 27.0659C148.633 27.1326 148.303 27.2284 147.812 27.2325C146.591 27.2575 145.487 26.5576 145.491 25.1118V20.4117H144.324V19.1701H145.491V17.2617H147.041V19.1701H148.674V20.4117H148.67Z" fill="white"/>
</svg>
