<svg width="189" height="42" viewBox="0 0 189 42" fill="none" xmlns="http://www.w3.org/2000/svg">
<path d="M167.501 0.0957031H21.6673C10.1614 0.0957031 0.833984 9.42311 0.833984 20.929C0.833984 32.435 10.1614 41.7624 21.6673 41.7624H167.501C179.007 41.7624 188.334 32.435 188.334 20.929C188.334 9.42311 179.007 0.0957031 167.501 0.0957031Z" fill="#02B14F"/>
<path d="M41.4868 17.7778C40.1827 17.7778 39.3577 18.4445 39.3577 19.3486C39.3535 20.3653 40.4577 20.7529 41.2869 20.9654L42.3244 21.2361C43.6702 21.5695 45.3786 22.3069 45.3786 24.2194C45.3786 26.0194 43.9452 27.3279 41.4494 27.3279C38.9535 27.3279 37.5827 26.1403 37.4785 24.2194H39.0827C39.1744 25.3736 40.2035 25.9236 41.4368 25.9236C42.7993 25.9236 43.791 25.2404 43.791 24.2029C43.791 23.2612 42.916 22.8861 41.7785 22.5861L40.5244 22.2444C38.8202 21.7819 37.7619 20.9195 37.7619 19.4403C37.7619 17.6111 39.3952 16.3945 41.5244 16.3945C43.6536 16.3945 45.1827 17.6278 45.2286 19.3278H43.6827C43.5702 18.3486 42.7035 17.7778 41.4868 17.7778Z" fill="white"/>
<path d="M48.7023 27.1486H47.1523V16.5361H48.6815V20.4861H48.7815C49.1565 19.6278 49.9023 19.0862 51.1398 19.0862C52.7773 19.0862 53.8648 20.1028 53.8648 22.0862V27.1486H52.3148V22.2736C52.3148 21.107 51.6773 20.4278 50.6106 20.4278C49.544 20.4278 48.7023 21.1529 48.7023 22.4237V27.1486Z" fill="white"/>
<path d="M55.5628 24.9029C55.5628 23.0945 57.1086 22.6987 58.6128 22.5237C60.042 22.357 60.6253 22.3695 60.6253 21.8029V21.7653C60.6253 20.8653 60.1128 20.3404 59.1128 20.3404C58.1128 20.3404 57.492 20.8862 57.2628 21.4487L55.8045 21.1153C56.3211 19.6653 57.6503 19.082 59.0878 19.082C60.3503 19.082 62.1753 19.5445 62.1753 21.8612V27.1445H60.6628V26.057H60.6003C60.3044 26.6529 59.5628 27.3195 58.2461 27.3195C56.7336 27.3195 55.5586 26.4612 55.5586 24.8945L55.5628 24.9029ZM60.6294 24.282V23.257C60.4044 23.4779 59.2128 23.6154 58.7128 23.682C57.817 23.8029 57.0794 24.0987 57.0794 24.9237C57.0794 25.6904 57.7128 26.0861 58.5878 26.0861C59.8794 26.0861 60.6294 25.2279 60.6294 24.282Z" fill="white"/>
<path d="M64.2363 19.1912H65.7321V20.4537H65.8155C66.1071 19.5995 66.903 19.0703 67.8363 19.0703C68.0322 19.0703 68.3405 19.0869 68.4946 19.1077V20.5911C68.3696 20.5536 68.0071 20.4995 67.6863 20.4995C66.5863 20.4995 65.7863 21.2495 65.7863 22.2911V27.1536H64.2363V19.1953V19.1912Z" fill="white"/>
<path d="M69.1914 23.2241C69.1914 20.7783 70.6539 19.0908 72.8706 19.0908C74.6747 19.0908 76.3955 20.2158 76.3955 23.0908V23.6408H70.7372C70.7789 25.1741 71.6705 26.0366 72.9955 26.0366C73.8747 26.0366 74.5497 25.6533 74.8289 24.9033L76.2955 25.1658C75.9414 26.4616 74.7164 27.3158 72.9789 27.3158C70.6331 27.3158 69.1914 25.6991 69.1914 23.2283V23.2241ZM74.8747 22.4783C74.8705 21.2616 74.0831 20.3699 72.8789 20.3699C71.6747 20.3699 70.7997 21.3491 70.7372 22.4783H74.8705H74.8747Z" fill="white"/>
<path d="M85.6916 20.4362H84.0582V24.8153C84.0582 25.7112 84.5082 25.8777 85.0124 25.8777C85.2624 25.8777 85.454 25.8319 85.5582 25.8111L85.8374 27.0903C85.654 27.157 85.3249 27.2528 84.8332 27.2569C83.6124 27.2819 82.5082 26.582 82.5124 25.1362V20.4362H81.3457V19.1945H82.5124V17.2861H84.0624V19.1945H85.6957V20.4362H85.6916Z" fill="white"/>
<path d="M89.1125 27.1486H87.5625V16.5361H89.0916V20.4861H89.1917C89.5667 19.6278 90.3125 19.0862 91.55 19.0862C93.1875 19.0862 94.275 20.1028 94.275 22.0862V27.1486H92.725V22.2736C92.725 21.107 92.0875 20.4278 91.0208 20.4278C89.9541 20.4278 89.1125 21.1529 89.1125 22.4237V27.1486Z" fill="white"/>
<path d="M96.1445 17.0405C96.1445 16.5322 96.5862 16.1113 97.1237 16.1113C97.6612 16.1113 98.1028 16.5322 98.1028 17.0405C98.1028 17.5488 97.657 17.9613 97.1237 17.9613C96.5904 17.9613 96.1445 17.5447 96.1445 17.0405ZM96.3404 19.1906H97.8903V27.1488H96.3404V19.1906Z" fill="white"/>
<path d="M104.534 21.3828C104.35 20.8494 103.909 20.3161 102.942 20.3161C102.063 20.3161 101.396 20.7494 101.404 21.3619C101.4 21.8994 101.779 22.1952 102.654 22.4036L103.917 22.6952C105.379 23.0327 106.092 23.7285 106.092 24.8493C106.092 26.291 104.759 27.3119 102.838 27.3119C101.05 27.3119 99.8794 26.5202 99.6211 25.1077L101.117 24.8785C101.304 25.6619 101.9 26.0619 102.825 26.0619C103.842 26.0619 104.5 25.5785 104.5 24.9619C104.5 24.466 104.142 24.1244 103.375 23.9536L102.029 23.6577C100.538 23.3244 99.8545 22.5744 99.8545 21.4452C99.8545 20.0369 101.129 19.0869 102.925 19.0869C104.721 19.0869 105.613 19.8952 105.938 21.1327L104.534 21.3828Z" fill="white"/>
<path d="M111.289 23.2241C111.289 20.7783 112.752 19.0908 114.968 19.0908C116.772 19.0908 118.493 20.2158 118.493 23.0908V23.6408H112.835C112.877 25.1741 113.768 26.0366 115.093 26.0366C115.972 26.0366 116.647 25.6533 116.927 24.9033L118.393 25.1658C118.039 26.4616 116.814 27.3158 115.077 27.3158C112.731 27.3158 111.289 25.6991 111.289 23.2283V23.2241ZM116.972 22.4783C116.968 21.2616 116.181 20.3699 114.977 20.3699C113.772 20.3699 112.897 21.3491 112.835 22.4783H116.968H116.972Z" fill="white"/>
<path d="M124.004 20.4366H122.287V27.1532H120.733V20.4366H119.504V19.1949H120.733V18.274C120.733 16.7824 121.837 16.0449 123.096 16.0449C123.721 16.0449 124.175 16.1741 124.391 16.2574L124.029 17.5116C123.883 17.4658 123.654 17.3907 123.333 17.3907C122.575 17.3907 122.287 17.7741 122.287 18.4783V19.1949H124.004V20.4366Z" fill="white"/>
<path d="M129.383 20.4366H127.666V27.1532H126.112V20.4366H124.883V19.1949H126.112V18.274C126.112 16.7824 127.216 16.0449 128.474 16.0449C129.099 16.0449 129.554 16.1741 129.77 16.2574L129.408 17.5116C129.262 17.4658 129.033 17.3907 128.712 17.3907C127.954 17.3907 127.666 17.7741 127.666 18.4783V19.1949H129.383V20.4366Z" fill="white"/>
<path d="M130.305 23.2077C130.305 20.7327 131.771 19.0869 134.013 19.0869C136.255 19.0869 137.721 20.7285 137.721 23.2077C137.721 25.6869 136.255 27.3119 134.013 27.3119C131.771 27.3119 130.305 25.6702 130.305 23.2077ZM136.159 23.2035C136.159 21.6785 135.476 20.3869 134.017 20.3869C132.559 20.3869 131.867 21.6827 131.867 23.2035C131.867 24.7244 132.551 26.0119 134.017 26.0119C135.484 26.0119 136.159 24.7327 136.159 23.2035Z" fill="white"/>
<path d="M139.441 19.1912H140.937V20.4537H141.021C141.312 19.5995 142.108 19.0703 143.041 19.0703C143.237 19.0703 143.546 19.0869 143.7 19.1077V20.5911C143.575 20.5536 143.212 20.4995 142.891 20.4995C141.791 20.4995 140.991 21.2495 140.991 22.2911V27.1536H139.441V19.1953V19.1912Z" fill="white"/>
<path d="M149.225 20.4362H147.591V24.8153C147.591 25.7112 148.041 25.8777 148.546 25.8777C148.796 25.8777 148.987 25.8319 149.091 25.8111L149.371 27.0903C149.187 27.157 148.858 27.2528 148.366 27.2569C147.146 27.2819 146.041 26.582 146.046 25.1362V20.4362H144.879V19.1945H146.046V17.2861H147.596V19.1945H149.229V20.4362H149.225Z" fill="white"/>
</svg>
