<svg width="226" height="59" viewBox="0 0 226 59" fill="none" xmlns="http://www.w3.org/2000/svg">
<path d="M196.147 0.046875H29.9847C13.9661 0.046875 0.980469 13.0325 0.980469 29.0511C0.980469 45.0696 13.9661 58.0553 29.9847 58.0553H196.147C212.166 58.0553 225.151 45.0696 225.151 29.0511C225.151 13.0325 212.166 0.046875 196.147 0.046875Z" fill="#A0D92A"/>
<path d="M52.6349 25.5875C49.8766 25.5875 47.8516 23.525 47.8516 20.1375C47.8516 16.75 49.8766 14.6875 52.6349 14.6875C55.3933 14.6875 57.4141 16.7459 57.4141 20.1375C57.4141 23.5292 55.3808 25.5875 52.6349 25.5875ZM52.6349 16.1458C50.8058 16.1458 49.4433 17.55 49.4433 20.1375C49.4433 22.725 50.8058 24.1291 52.6349 24.1291C54.4641 24.1291 55.8266 22.725 55.8266 20.1375C55.8266 17.55 54.4599 16.1458 52.6349 16.1458Z" fill="#005339"/>
<path d="M59.2676 17.4802H60.7634V18.7427H60.8468C61.1384 17.8886 61.9343 17.3594 62.8676 17.3594C63.0634 17.3594 63.3718 17.3761 63.526 17.3969V18.8803C63.401 18.8428 63.0384 18.7885 62.7176 18.7885C61.6176 18.7885 60.8176 19.5385 60.8176 20.5802V25.4428H59.2676V17.4844V17.4802Z" fill="#005339"/>
<path d="M73.2934 19.6747C73.11 19.1414 72.6684 18.6081 71.7017 18.6081C70.8226 18.6081 70.1559 19.0414 70.1642 19.6539C70.16 20.1914 70.5392 20.4872 71.4142 20.6956L72.6767 20.9872C74.1392 21.3247 74.8517 22.0206 74.8517 23.1414C74.8517 24.5831 73.5184 25.6039 71.5976 25.6039C69.8101 25.6039 68.6392 24.8122 68.3809 23.3997L69.8767 23.1705C70.0642 23.9539 70.6601 24.3539 71.5851 24.3539C72.6017 24.3539 73.2601 23.8706 73.2601 23.2539C73.2601 22.7581 72.9017 22.4164 72.135 22.2455L70.7892 21.9497C69.2975 21.6164 68.6142 20.8664 68.6142 19.7372C68.6142 18.3289 69.8892 17.3789 71.685 17.3789C73.4809 17.3789 74.3725 18.1872 74.6975 19.4247L73.2934 19.6747Z" fill="#005339"/>
<path d="M78.0969 25.4406H76.5469V14.8281H78.076V18.7781H78.176C78.551 17.9198 79.2969 17.3781 80.5344 17.3781C82.1719 17.3781 83.2594 18.3947 83.2594 20.3781V25.4406H81.7093V20.5655C81.7093 19.3989 81.0718 18.7197 80.0052 18.7197C78.9385 18.7197 78.0969 19.4447 78.0969 20.7156V25.4406Z" fill="#005339"/>
<path d="M84.9553 23.188C84.9553 21.3797 86.5012 20.9839 88.0054 20.8089C89.4345 20.6422 90.0179 20.6547 90.0179 20.088V20.0505C90.0179 19.1505 89.5054 18.6255 88.5054 18.6255C87.5054 18.6255 86.8845 19.1713 86.6553 19.7338L85.197 19.4006C85.7137 17.9506 87.0428 17.3672 88.4803 17.3672C89.7428 17.3672 91.5678 17.8297 91.5678 20.1463V25.4297H90.0553V24.3422H89.9928C89.697 24.938 88.9554 25.6047 87.6387 25.6047C86.1262 25.6047 84.9512 24.7463 84.9512 23.1797L84.9553 23.188ZM90.022 22.5672V21.5422C89.797 21.763 88.6054 21.9005 88.1054 21.9672C87.2095 22.088 86.472 22.3839 86.472 23.2089C86.472 23.9755 87.1053 24.3714 87.9803 24.3714C89.272 24.3714 90.022 23.513 90.022 22.5672Z" fill="#005339"/>
<path d="M93.6309 17.4802H95.1267V18.7427H95.21C95.5017 17.8886 96.2975 17.3594 97.2308 17.3594C97.4266 17.3594 97.735 17.3761 97.8892 17.3969V18.8803C97.7642 18.8428 97.4017 18.7885 97.0808 18.7885C95.9808 18.7885 95.1808 19.5385 95.1808 20.5802V25.4428H93.6309V17.4844V17.4802Z" fill="#005339"/>
<path d="M98.584 21.5122C98.584 19.0664 100.047 17.3789 102.263 17.3789C104.067 17.3789 105.788 18.5039 105.788 21.3789V21.9289H100.13C100.172 23.4622 101.063 24.3247 102.388 24.3247C103.267 24.3247 103.942 23.9414 104.221 23.1914L105.688 23.4539C105.334 24.7498 104.109 25.6039 102.372 25.6039C100.026 25.6039 98.584 23.9872 98.584 21.5164V21.5122ZM104.267 20.7665C104.263 19.5498 103.476 18.6581 102.272 18.6581C101.067 18.6581 100.192 19.6373 100.13 20.7665H104.263H104.267Z" fill="#005339"/>
<path d="M111.172 15.3315C111.172 14.8232 111.614 14.4023 112.151 14.4023C112.689 14.4023 113.13 14.8232 113.13 15.3315C113.13 15.8398 112.684 16.2523 112.151 16.2523C111.618 16.2523 111.172 15.8357 111.172 15.3315ZM111.368 17.4815H112.918V25.4398H111.368V17.4815Z" fill="#005339"/>
<path d="M118.715 18.7242H117.082V23.1034C117.082 23.9992 117.532 24.1659 118.036 24.1659C118.286 24.1659 118.477 24.1201 118.582 24.0993L118.861 25.3784C118.677 25.4451 118.348 25.541 117.857 25.5451C116.636 25.5701 115.532 24.8701 115.536 23.4243V18.7242H114.369V17.4826H115.536V15.5742H117.086V17.4826H118.719V18.7242H118.715Z" fill="#005339"/>
<path d="M128.072 18.7237H126.356V25.4404H124.801V18.7237H123.572V17.4821H124.801V16.5612C124.801 15.0696 125.906 14.332 127.164 14.332C127.789 14.332 128.243 14.4612 128.46 14.5445L128.097 15.7987C127.951 15.7529 127.722 15.6779 127.401 15.6779C126.643 15.6779 126.356 16.0612 126.356 16.7654V17.4821H128.072V18.7237Z" fill="#005339"/>
<path d="M128.994 21.4959C128.994 19.0209 130.461 17.375 132.702 17.375C134.944 17.375 136.411 19.0167 136.411 21.4959C136.411 23.9751 134.944 25.6 132.702 25.6C130.461 25.6 128.994 23.9584 128.994 21.4959ZM134.848 21.4917C134.848 19.9667 134.165 18.675 132.707 18.675C131.248 18.675 130.557 19.9709 130.557 21.4917C130.557 23.0126 131.24 24.3 132.707 24.3C134.173 24.3 134.848 23.0209 134.848 21.4917Z" fill="#005339"/>
<path d="M138.131 17.4802H139.627V18.7427H139.71C140.002 17.8886 140.798 17.3594 141.731 17.3594C141.927 17.3594 142.235 17.3761 142.389 17.3969V18.8803C142.264 18.8428 141.902 18.7885 141.581 18.7885C140.481 18.7885 139.681 19.5385 139.681 20.5802V25.4428H138.131V17.4844V17.4802Z" fill="#005339"/>
<path d="M143.242 17.4805H144.842L146.401 23.3263H146.48L148.046 17.4805H149.646L151.201 23.3013H151.28L152.83 17.4805H154.43L152.092 25.4388H150.513L148.896 19.693H148.776L147.159 25.4388H145.584L143.242 17.4805Z" fill="#005339"/>
<path d="M155.518 23.188C155.518 21.3797 157.064 20.9839 158.568 20.8089C159.997 20.6422 160.58 20.6547 160.58 20.088V20.0505C160.58 19.1505 160.068 18.6255 159.068 18.6255C158.068 18.6255 157.447 19.1713 157.218 19.7338L155.76 19.4006C156.276 17.9506 157.605 17.3672 159.043 17.3672C160.305 17.3672 162.13 17.8297 162.13 20.1463V25.4297H160.618V24.3422H160.555C160.26 24.938 159.518 25.6047 158.201 25.6047C156.689 25.6047 155.514 24.7463 155.514 23.1797L155.518 23.188ZM160.585 22.5672V21.5422C160.36 21.763 159.168 21.9005 158.668 21.9672C157.772 22.088 157.035 22.3839 157.035 23.2089C157.035 23.9755 157.668 24.3714 158.543 24.3714C159.835 24.3714 160.585 23.513 160.585 22.5672Z" fill="#005339"/>
<path d="M164.189 17.4802H165.685V18.7427H165.769C166.06 17.8886 166.856 17.3594 167.789 17.3594C167.985 17.3594 168.294 17.3761 168.448 17.3969V18.8803C168.323 18.8428 167.96 18.7885 167.639 18.7885C166.539 18.7885 165.739 19.5385 165.739 20.5802V25.4428H164.189V17.4844V17.4802Z" fill="#005339"/>
<path d="M169.156 21.4739C169.156 18.8948 170.573 17.3739 172.494 17.3739C173.977 17.3739 174.506 18.2739 174.785 18.7698H174.877V14.8281H176.427V25.4406H174.915V24.2031H174.785C174.506 24.7115 173.935 25.5989 172.485 25.5989C170.552 25.5989 169.16 24.0531 169.16 21.4781L169.156 21.4739ZM174.902 21.4573C174.902 19.7948 174.177 18.6905 172.823 18.6905C171.469 18.6905 170.719 19.8781 170.719 21.4573C170.719 23.0364 171.44 24.2698 172.823 24.2698C174.206 24.2698 174.902 23.1281 174.902 21.4573Z" fill="#005339"/>
<path d="M57.7469 32.4414H59.1677C58.1469 33.8081 57.3427 36.5873 57.3427 39.0498C57.3427 41.5123 58.1469 44.2915 59.1677 45.6623H57.7469C56.4302 43.8165 55.7344 41.6498 55.7344 39.0498C55.7344 36.4498 56.4302 34.2872 57.7469 32.4414Z" fill="#005339"/>
<path d="M64.5138 36.736H62.8805V41.1151C62.8805 42.011 63.3305 42.1777 63.8347 42.1777C64.0847 42.1777 64.2763 42.1319 64.3805 42.111L64.6596 43.3901C64.4763 43.4568 64.1471 43.5527 63.6555 43.5568C62.4346 43.5818 61.3305 42.8818 61.3347 41.436V36.736H60.168V35.4943H61.3347V33.5859H62.8846V35.4943H64.5179V36.736H64.5138Z" fill="#005339"/>
<path d="M67.9348 43.4523H66.3848V32.8398H67.9139V36.7898H68.0139C68.3889 35.9315 69.1347 35.3898 70.3722 35.3898C72.0097 35.3898 73.0973 36.4064 73.0973 38.3898V43.4523H71.5473V38.5774C71.5473 37.4107 70.9097 36.7314 69.8431 36.7314C68.7764 36.7314 67.9348 37.4565 67.9348 38.7273V43.4523Z" fill="#005339"/>
<path d="M74.7893 41.2036C74.7893 39.3953 76.3352 38.9995 77.8394 38.8245C79.2685 38.6578 79.8518 38.6703 79.8518 38.1037V38.0661C79.8518 37.1661 79.3393 36.6412 78.3393 36.6412C77.3393 36.6412 76.7185 37.187 76.4894 37.7495L75.031 37.4162C75.5477 35.9662 76.8769 35.3828 78.3144 35.3828C79.5769 35.3828 81.4018 35.8454 81.4018 38.162V43.4454H79.8893V42.3578H79.8269C79.531 42.9536 78.7894 43.6203 77.4727 43.6203C75.9602 43.6203 74.7852 42.762 74.7852 41.1953L74.7893 41.2036ZM79.856 40.5828V39.5578C79.631 39.7787 78.4394 39.9162 77.9394 39.9828C77.0435 40.1037 76.306 40.3995 76.306 41.2245C76.306 41.9912 76.9393 42.387 77.8143 42.387C79.106 42.387 79.856 41.5286 79.856 40.5828Z" fill="#005339"/>
<path d="M87.1817 36.736H85.5484V41.1151C85.5484 42.011 85.9984 42.1777 86.5026 42.1777C86.7526 42.1777 86.9443 42.1319 87.0484 42.111L87.3276 43.3901C87.1443 43.4568 86.8151 43.5527 86.3234 43.5568C85.1026 43.5818 83.9984 42.8818 84.0026 41.436V36.736H82.8359V35.4943H84.0026V33.5859H85.5526V35.4943H87.1859V36.736H87.1817Z" fill="#005339"/>
<path d="M92.1309 35.4922H93.7309L95.2892 41.338H95.3684L96.935 35.4922H98.535L100.089 41.313H100.168L101.718 35.4922H103.318L100.981 43.4506H99.4017L97.7851 37.7047H97.6642L96.0475 43.4506H94.4725L92.1309 35.4922Z" fill="#005339"/>
<path d="M104.176 39.5076C104.176 37.0326 105.642 35.3867 107.884 35.3867C110.126 35.3867 111.592 37.0284 111.592 39.5076C111.592 41.9868 110.126 43.6117 107.884 43.6117C105.642 43.6117 104.176 41.9701 104.176 39.5076ZM110.03 39.5034C110.03 37.9784 109.347 36.6868 107.888 36.6868C106.43 36.6868 105.738 37.9826 105.738 39.5034C105.738 41.0243 106.422 42.3118 107.888 42.3118C109.355 42.3118 110.03 41.0326 110.03 39.5034Z" fill="#005339"/>
<path d="M113.318 35.488H114.814V36.7505H114.897C115.189 35.8964 115.985 35.3672 116.918 35.3672C117.114 35.3672 117.423 35.3839 117.577 35.4047V36.8881C117.452 36.8506 117.089 36.7964 116.768 36.7964C115.668 36.7964 114.868 37.5463 114.868 38.588V43.4506H113.318V35.4922V35.488Z" fill="#005339"/>
<path d="M118.922 32.8398H120.472V38.8607H120.605L123.776 35.494H125.63L122.405 38.9106L125.847 43.4565H123.947L121.243 39.8606L120.472 40.6315V43.4565H118.922V32.844V32.8398Z" fill="#005339"/>
<path d="M131.592 37.6865C131.409 37.1531 130.967 36.6198 130.001 36.6198C129.121 36.6198 128.455 37.0531 128.463 37.6656C128.459 38.2031 128.838 38.4989 129.713 38.7073L130.975 38.9989C132.438 39.3364 133.151 40.0323 133.151 41.1532C133.151 42.5948 131.817 43.6156 129.896 43.6156C128.109 43.6156 126.938 42.8239 126.68 41.4114L128.176 41.1824C128.363 41.9657 128.959 42.3656 129.884 42.3656C130.9 42.3656 131.559 41.8823 131.559 41.2657C131.559 40.7698 131.201 40.4281 130.434 40.2573L129.088 39.9614C127.596 39.6281 126.913 38.8781 126.913 37.7489C126.913 36.3406 128.188 35.3906 129.984 35.3906C131.78 35.3906 132.671 36.1989 132.996 37.4364L131.592 37.6865Z" fill="#005339"/>
<path d="M142.426 36.736H140.793V41.1151C140.793 42.011 141.243 42.1777 141.747 42.1777C141.997 42.1777 142.188 42.1319 142.293 42.111L142.572 43.3901C142.388 43.4568 142.059 43.5527 141.568 43.5568C140.347 43.5818 139.243 42.8818 139.247 41.436V36.736H138.08V35.4943H139.247V33.5859H140.797V35.4943H142.43V36.736H142.426Z" fill="#005339"/>
<path d="M143.693 39.5076C143.693 37.0326 145.16 35.3867 147.402 35.3867C149.643 35.3867 151.11 37.0284 151.11 39.5076C151.11 41.9868 149.643 43.6117 147.402 43.6117C145.16 43.6117 143.693 41.9701 143.693 39.5076ZM149.548 39.5034C149.548 37.9784 148.864 36.6868 147.406 36.6868C145.948 36.6868 145.256 37.9826 145.256 39.5034C145.256 41.0243 145.939 42.3118 147.406 42.3118C148.873 42.3118 149.548 41.0326 149.548 39.5034Z" fill="#005339"/>
<path d="M152.476 39.5076C152.476 37.0326 153.943 35.3867 156.185 35.3867C158.426 35.3867 159.893 37.0284 159.893 39.5076C159.893 41.9868 158.426 43.6117 156.185 43.6117C153.943 43.6117 152.476 41.9701 152.476 39.5076ZM158.331 39.5034C158.331 37.9784 157.647 36.6868 156.189 36.6868C154.731 36.6868 154.039 37.9826 154.039 39.5034C154.039 41.0243 154.722 42.3118 156.189 42.3118C157.656 42.3118 158.331 41.0326 158.331 39.5034Z" fill="#005339"/>
<path d="M161.68 42.5146C161.68 41.9479 162.146 41.4854 162.717 41.4854C163.288 41.4854 163.755 41.9521 163.755 42.5146C163.755 43.0771 163.284 43.5521 162.717 43.5521C162.151 43.5521 161.68 43.0896 161.68 42.5146ZM163.438 40.402H162.005L161.871 32.8438H163.576L163.442 40.402H163.438Z" fill="#005339"/>
<path d="M166.868 45.6584H165.447C166.468 44.2918 167.272 41.5125 167.272 39.05C167.272 36.5875 166.468 33.8042 165.447 32.4375H166.868C168.185 34.2833 168.881 36.45 168.881 39.05C168.881 41.65 168.185 43.8126 166.868 45.6584Z" fill="#005339"/>
</svg>
