<svg width="450" height="209" viewBox="0 0 450 209" fill="none" xmlns="http://www.w3.org/2000/svg">
<mask id="mask0_303_72165" style="mask-type:luminance" maskUnits="userSpaceOnUse" x="0" y="0" width="450" height="209">
<path d="M450 0H0V208.333H450V0Z" fill="white"/>
</mask>
<g mask="url(#mask0_303_72165)">
<path d="M34.0875 125.351C34.0875 123.109 34.1084 121.018 34.2959 118.78C34.7709 118.801 34.8542 118.484 35.0917 118.209C37.0667 115.955 38.6584 112.822 36.5917 110.088C37.6667 107.526 38.9459 105.822 40.1375 103.518C41.0625 105.08 41.7709 106.901 42.2792 108.651C43.7209 113.605 43.1667 117.455 41.9125 122.376C41.7042 123.188 39.2 127.459 39.1459 128.159C39.0875 128.943 36.4459 125.93 34.0875 125.338V125.351Z" fill="#80CA59"/>
<path d="M47.125 34.1509C46.5375 33.1759 45.2125 31.38 44.3959 30.6384C43.5792 29.8967 42.8042 29.3634 41.675 29.7259C41.4834 31.7759 43.2292 33.3467 43.9375 35.2634C45.5334 39.6009 45.7625 44.0467 45.4709 48.5967C45.1625 53.3759 42.8042 57.73 40.4792 61.78C37.4125 67.1175 36.2 69.5634 35.5375 75.7592C35.1334 79.5259 36.1709 83.005 36.325 86.7425C36.3834 88.1967 36.2584 89.655 36.0417 91.0925C35.2125 96.5634 32.55 101.222 30.3709 106.209C28.1875 111.209 28.0667 117.026 27.7084 122.401C27.6917 122.668 27.6792 122.963 27.8375 123.18C27.9625 123.351 28.1667 123.438 28.3584 123.518C30.4959 124.393 32.6292 125.263 34.7667 126.138C34.2375 119.255 35.0542 113.338 38.8917 107.538C41.0209 104.318 43.4417 101.197 44.6 97.5009C46.7167 90.7634 44.0375 84.2967 43.0834 77.68C42.5209 73.7759 41.8459 72.5592 43.4209 68.9592C44.9209 65.53 46.9709 62.3759 48.3667 58.8925C48.4375 58.7175 48.5042 58.5384 48.5709 58.3634C49.8917 54.8384 50.425 51.0342 50.3959 47.2717C50.3625 42.8675 49.4042 37.9342 47.1209 34.1467L47.125 34.1509Z" fill="#408F4D"/>
<path d="M48.9042 144.814C53.7542 140.772 56.7458 134.639 57.3 128.322C57.9333 121.093 52.6959 111.905 51.9667 104.826C50.525 90.8218 59.2334 87.0593 64.4709 75.0843C66.7875 69.7885 69.0459 64.3552 69.675 58.5927C69.9375 56.1718 69.8917 53.626 68.8375 51.4385C68.6375 51.0218 68.35 50.5843 67.9042 50.4927C67.1584 50.3427 66.6334 51.2093 66.3917 51.9385C65.3334 55.1302 65.0042 58.5093 64.3459 61.8093C62.3792 71.6718 59.8 76.6635 52.6125 83.5843C52.6125 83.5843 45.2542 92.2427 45.9 103.047C46.2042 108.172 48.2417 113.014 49.3209 118.03C50.4042 123.047 50.5 128.689 47.575 132.876L48.9 144.818L48.9042 144.814Z" fill="#80CA59"/>
<path d="M46.9293 123.726C45.8668 123.28 44.7376 122.81 43.6543 122.43C44.1876 118.289 43.6626 113.91 44.6626 109.868C45.1126 109.197 45.7918 109.385 45.9793 110.176C46.346 111.71 46.2501 113.743 46.3876 115.31C46.5626 117.335 46.8001 119.372 46.9418 121.405C46.9918 122.105 47.096 123.06 46.9335 123.726H46.9293Z" fill="#4EAB60"/>
<path d="M33.3376 50.1509V50.705C33.3167 50.7634 33.3584 50.8425 33.3376 50.8884C31.0501 56.0842 28.4709 60.1092 28.0626 66.1425C27.6459 72.2592 30.3001 75.4259 30.7917 81.0217C30.8792 82.0217 31.0042 83.1759 30.9751 84.1634C30.9042 86.455 30.0626 89.9175 29.2542 92.1342C29.1459 92.4259 29.2542 92.7759 28.7917 92.6717C28.2209 90.6717 27.3084 88.955 26.4251 87.1259C26.3292 86.9259 26.3417 86.58 26.2417 86.3884C27.4167 84.08 27.0251 80.555 26.5584 78.0217C26.4709 77.5342 26.1584 77.005 26.0584 76.5884C25.2626 73.28 24.4751 71.3884 24.4209 67.7134C24.4084 66.9425 24.3667 66.0675 24.4209 65.3092C24.7334 60.8675 26.8126 55.6759 29.7001 52.3675C30.3167 51.6634 32.5251 48.9592 33.3417 50.1509H33.3376Z" fill="#4EAB60"/>
<path d="M20.1376 79.1392C19.7084 80.6975 20.4918 82.635 20.6834 84.2434C21.1793 88.4475 21.2043 92.6517 20.6834 96.8559C20.3209 99.7642 19.3584 102.789 19.1876 105.693C18.9626 109.46 19.2043 113.473 20.1418 117.114C19.1959 119.468 19.5793 125.081 19.2001 127.656C16.0376 121.56 15.4084 117.177 15.0459 112.606C14.4418 104.968 16.8334 98.51 16.9418 91.135C17.0501 83.8267 14.0959 74.3475 15.2334 67.6309C15.5918 67.7767 15.5959 68.11 15.6793 68.4267C16.8626 72.985 18.0418 75.0934 20.1459 79.1392H20.1376Z" fill="#80CA59"/>
<path d="M80.4084 134.093C79.3418 132.268 77.7501 130.943 76.6626 129.21C74.4168 125.627 73.9376 121.523 74.7334 117.393C75.2126 114.923 76.0626 113.135 77.1001 110.923C77.2209 110.664 77.3418 110.431 77.4626 110.185C78.8751 107.268 80.5626 104.443 81.3084 101.243C81.9668 98.4183 82.0876 95.31 81.8293 92.4392C81.4084 92.1725 81.4584 91.6142 80.5001 91.9183C79.8293 92.1308 79.1918 95.6475 78.9168 96.5058C77.5876 100.698 76.0543 103.148 74.0043 106.86C73.8876 107.073 73.6668 107.181 73.6418 107.231C72.0959 109.985 70.8709 112.977 70.1834 116.106C69.2959 120.148 69.2959 123.356 70.4584 127.381C71.7251 131.768 75.1584 133.935 76.6918 137.873C78.3168 142.035 77.8543 146.068 76.1876 150.123C77.6959 150.56 79.2334 150.968 80.7376 151.418C82.8418 145.781 83.5543 139.493 80.4043 134.102L80.4084 134.093Z" fill="#80CA59"/>
<path d="M23.4084 110.605C21.8917 108.13 21.3834 104.989 21.35 102.105C21.3125 98.9596 22.1959 95.5221 23.8709 92.918C25.475 97.4346 26.3459 101.997 25.025 106.718C24.6334 108.118 23.8292 109.389 23.4084 110.61V110.605Z" fill="#4EAB60"/>
<path d="M68.3667 114.988C67.6 110.184 65.7292 106.621 64.725 102.046C64.6833 101.85 64.4333 101.542 64.3625 101.121C63.8333 98.0463 63.8625 94.938 64.3625 91.8755C64.4 91.6463 64.3292 91.3671 64.3625 91.138C64.375 91.0505 64.4583 90.9755 64.5458 90.9546C65.0583 86.8713 66.9542 83.0588 67.4083 79.3546C67.5292 78.3671 67.4708 77.2713 66.1792 77.9213C66.05 77.9838 64.9167 79.5046 64.7333 79.7755C63.4208 81.688 62.2583 83.9671 61.45 86.1463C59.9083 90.3005 59.2583 94.2505 59.4458 98.7171C59.6792 104.15 62.0458 108.3 63.0875 113.321C63.4458 115.05 63.4125 117.125 63.2708 118.867C63.1583 120.213 63.45 121.605 61.8167 122.196C62.2 126.705 61.9542 130.83 60.5417 135.138C62.2625 136.95 63.3667 139.521 64.6292 141.617C64.8 141.905 64.8417 142.188 65.275 142.163C65.0167 137.596 67.4292 131.267 68.2833 126.638C69.0833 122.317 69.0583 119.305 68.3667 114.984V114.988Z" fill="#BEEF74"/>
<path d="M64.3625 91.1384C64.375 91.0509 64.4584 90.9759 64.5459 90.9551C64.5334 91.0426 64.4542 91.1217 64.3625 91.1384Z" fill="#68D1C6"/>
<path d="M60.7209 141.43C61.3084 141.447 61.6168 140.734 61.7543 140.155C62.5168 136.926 63.5876 133.784 64.0293 130.48C64.6626 125.73 64.0418 120.938 62.8959 116.313C59.5751 102.901 52.0001 90.7218 53.8876 76.376C54.1834 74.1343 54.7543 71.9177 54.7293 69.6552C54.7209 69.0635 54.5043 68.226 53.8459 68.5927C53.5376 68.7635 53.3376 70.5802 53.2543 70.926C52.7751 72.826 52.3126 74.7302 51.9251 76.6552C51.1709 80.3843 50.6793 84.1927 50.8543 88.0093C51.1876 95.2427 53.8793 102.113 56.0584 109.009C58.2376 115.905 60.4876 121.951 56.8251 134.322L60.7209 141.43Z" fill="#408F4D"/>
<path d="M28.0459 85.9553C25.9584 81.5469 23.2334 77.5511 21.2501 73.0428C18.9667 67.8469 17.3626 61.9969 17.4709 56.2678C17.4834 55.5886 18.0584 53.6928 17.2542 53.3469C15.7542 52.7053 14.6376 55.9928 14.2959 57.1094C10.6917 68.8094 17.4751 78.6553 21.9084 88.8761C24.0626 93.8428 25.5459 99.3678 24.4459 104.676C23.5667 108.914 21.1459 112.551 19.3126 116.393C17.2501 120.709 17.0792 125.122 17.0751 129.864C17.0751 129.864 23.7459 132.118 23.7501 132.122C22.5959 131.73 24.3084 122.068 24.6334 120.851C25.6834 116.864 28.1042 113.759 29.6917 110.039C32.2876 103.947 31.8667 96.8761 29.8792 90.5553C29.3751 88.9553 28.7501 87.4344 28.0542 85.9594L28.0459 85.9553Z" fill="#BEEF74"/>
<path d="M164.354 129.405C163.075 126.026 160.863 123.084 159.279 119.834C157.65 116.493 156.396 112.913 156.15 109.168C155.871 104.876 156.917 100.584 156.638 96.2926C156.6 95.7343 156.379 95.0134 155.825 95.0176C155.429 95.0176 155.162 95.4176 154.975 95.7718C152.15 101.184 151.429 107.968 152.592 113.947C153.183 116.98 154.204 119.976 155.692 122.676C157.6 126.138 159.658 128.997 160.196 133.059C160.587 136.001 160.408 138.984 160.196 141.943C159.8 147.347 159.267 152.743 158.433 158.097C158.388 158.38 158.35 158.693 158.513 158.93C158.85 159.426 159.613 159.093 160.083 158.718C160.988 157.997 164.854 153.705 165.983 154.922C166.2 155.155 166.288 155.409 166.688 155.305C165.575 151.109 166.604 144.738 166.512 140.263C166.429 136.084 165.829 133.288 164.358 129.401L164.354 129.405Z" fill="#408F4D"/>
<path d="M165.658 83.2419C165.717 83.2794 165.771 83.3294 165.813 83.3961C166.138 83.8961 166.075 84.5753 165.833 85.1211C165.592 85.6669 165.192 86.1211 164.833 86.6003C161.675 90.8003 162.492 95.4128 163.833 100.104C164.604 102.804 165.275 105.559 165.408 108.379C165.642 113.279 164.504 118.117 162.896 122.704C160.771 128.754 157.796 134.425 156.192 140.675C155.392 143.784 154.9 146.988 154.942 150.204C154.983 153.542 155.867 156.688 156.575 159.921C155.433 160.446 153.692 161.384 152.596 162.029C152.383 162.154 150.521 154.538 150.438 153.904C150 150.559 150.042 147.142 150.583 143.813C151.021 141.125 151.771 138.5 152.267 135.825C153.229 130.65 152.383 125.8 150.513 120.934C147.904 114.142 144.054 107.929 140.267 101.767C139.829 101.054 139.033 100.138 139.304 99.2253C139.621 98.1544 141.042 99.3878 141.521 99.8044C143.85 101.821 145.763 104.284 147.554 106.792C149.492 109.5 151.413 112.309 153.021 115.263C154.617 118.2 156.154 121.517 156.608 124.875C156.671 125.334 156.6 125.967 156.921 126.346C157.275 126.763 158.121 124.817 158.238 124.567C159.808 121.259 161.404 117.879 161.867 114.196C162.3 110.771 162.021 107.25 161.008 103.95C159.967 100.563 158.946 96.9711 159.075 93.3878C159.154 91.1878 159.788 88.9294 160.846 87.0086C161.396 86.0128 162.083 85.0669 162.963 84.3461C163.4 83.9878 165.008 82.8211 165.663 83.2336L165.658 83.2419Z" fill="#4EAB60"/>
<path d="M181.771 82.1256C181.312 81.3631 180.275 79.9589 179.637 79.3798C179 78.8006 178.392 78.3839 177.512 78.6673C177.362 80.2714 178.729 81.4964 179.279 82.9964C180.529 86.3881 180.708 89.8631 180.479 93.4173C180.237 97.1506 178.396 100.555 176.579 103.721C174.183 107.892 172.283 111.938 171.762 116.78C171.446 119.726 172.254 122.442 172.375 125.363C172.421 126.501 172.325 127.638 172.154 128.763C171.504 133.038 169.425 136.68 167.725 140.576C166.017 144.484 165.925 149.026 165.646 153.23C165.633 153.438 165.625 153.671 165.746 153.838C165.842 153.971 166.004 154.038 166.154 154.101C167.825 154.784 169.492 155.467 171.162 156.151C170.75 150.771 171.387 146.146 174.387 141.617C176.05 139.101 177.942 136.663 178.85 133.776C180.504 128.509 178.408 123.459 177.662 118.288C177.225 115.238 177.65 112.155 178.883 109.342C180.058 106.663 181.658 104.196 182.75 101.476C182.804 101.338 182.858 101.201 182.912 101.063C183.946 98.3089 184.362 95.3381 184.337 92.3964C184.312 88.9548 183.562 85.1006 181.779 82.1381L181.771 82.1256Z" fill="#408F4D"/>
<path d="M160.529 160.634C163.696 157.996 165.65 153.988 166.012 149.863C166.429 145.142 164.121 140.759 163.646 136.138C162.704 126.992 168.871 120.159 172.292 112.338C173.804 108.879 175.279 105.329 175.692 101.567C175.862 99.9878 175.833 98.3211 175.146 96.8919C175.017 96.6211 174.829 96.3336 174.537 96.2753C174.05 96.1753 173.708 96.7419 173.55 97.2211C172.858 99.3044 172.646 101.513 172.217 103.667C170.933 110.109 167.654 116.121 162.958 120.642C162.958 120.642 158.154 126.296 158.575 133.35C158.775 136.696 160.104 139.859 160.808 143.134C161.517 146.409 161.579 150.096 159.667 152.829L160.533 160.629L160.529 160.634Z" fill="#80CA59"/>
<path d="M148.917 144.546C147.975 143.529 146.783 142.713 146.108 141.492C145.238 139.921 145.396 137.988 145.667 136.204C146.017 133.892 146.517 131.604 147.017 129.321L146.954 129.209C146.988 129.134 147.013 129.059 147.021 128.988C147.363 125.242 146.225 121.779 144.529 118.529C143.671 116.884 142.55 115.4 141.671 113.796C140.183 111.071 139.908 108.817 140.15 105.763C140.275 104.2 141.35 97.2628 141.296 96.4211C141.075 92.9711 140.263 89.392 138.063 86.692C137.971 86.7045 137.717 86.5711 137.463 86.6253C136.688 86.7878 136.975 87.5586 137.063 88.1711C137.688 92.4795 139.254 95.2711 137.733 99.5878C135.238 106.675 135.267 109.729 136.413 113.8C137.546 117.842 140.475 121.275 141.1 125.429C141.692 129.367 140.142 133.317 140.154 137.3C140.154 138.221 140.304 139.254 140.488 140.184C140.817 141.859 141.525 143.438 142.542 144.8C144.804 147.829 147.083 150.917 147.75 154.617L151.292 153.554L151.192 149.159C150.892 147.442 150.092 145.817 148.917 144.546Z" fill="#408F4D"/>
<path d="M150.146 106.759C148.629 104.217 146.829 101.796 145.867 98.9587C145.463 97.7671 145.158 96.5379 144.975 95.2837C144.908 94.8296 144.887 93.9837 144.562 93.6212C144.35 93.3837 143.975 93.4004 143.75 93.6046C143.158 94.1296 143.283 95.7129 143.267 96.4171C143.237 97.7171 143.342 98.9837 143.65 100.246C144.558 103.996 146.908 106.967 148.7 110.288C149.462 111.696 150.067 113.196 150.617 114.717C152.283 119.346 150.792 122.196 150.35 124.692C150.179 125.663 150.004 126.63 149.9 127.609C149.842 128.155 149.804 128.713 149.912 129.25C150.146 130.417 150.946 131.367 151.167 132.542C151.408 133.817 151.371 135.138 151.354 136.43C151.225 147.017 149.021 148.53 149.796 150.425C150.925 149.642 152.125 148.955 153.238 148.159C152.929 145.471 152.913 142.996 153.5 140.359C153.667 139.617 154.654 136.8 154.621 136.367C154.587 135.9 154.242 135.317 154.092 134.871C153.833 134.105 153.583 133.35 153.417 132.555C153.092 130.967 153.004 129.338 153.067 127.717C153.142 125.809 153.425 123.917 153.75 122.038C154.046 120.338 154.046 118.667 153.833 116.942C153.387 113.321 151.996 109.863 150.142 106.759H150.146Z" fill="#BEEF74"/>
<path d="M128.437 108.946C128.946 110.705 129.229 112.655 129.821 114.446C131.542 119.692 134.346 124.421 135.508 129.863C136.733 135.596 136.704 141.513 136.442 147.346C136.275 151.042 134.942 154.592 135.142 158.288C135.821 171.026 131.883 165.067 131.775 162.317C131.608 158.051 131.775 153.655 132.067 149.392C132.458 143.605 132.442 137.921 131.571 132.176C130.725 126.601 128.037 121.596 127.158 116.059C126.742 113.43 126.542 110.492 127.029 107.867C127.758 107.867 128.242 108.255 128.442 108.946H128.437Z" fill="#80CA59"/>
<path d="M166.971 162.917C168.742 153.413 172.087 144.209 176.817 135.813C179.642 130.796 182.962 126.063 185.467 120.875C188.546 114.496 190.342 107.513 191.075 100.446C191.104 100.146 191.142 99.8296 191.321 99.5921C191.692 99.1046 192.504 99.2213 192.921 99.6713C193.337 100.121 193.458 100.771 193.542 101.38C194.554 108.655 193.196 116.25 189.725 122.696C187.362 127.084 184.087 130.896 181.508 135.159C176.958 142.667 174.654 151.555 174.971 160.363L166.971 162.913V162.917Z" fill="#BEEF74"/>
<path d="M143.929 149.159C142.625 148.867 141.233 148.559 139.917 148.35C139.7 143.479 138.229 138.604 138.575 133.742C138.958 132.879 139.771 132.959 140.146 133.825C140.871 135.509 141.167 137.854 141.633 139.625C142.237 141.913 142.912 144.2 143.479 146.496C143.675 147.288 143.987 148.363 143.933 149.159H143.929Z" fill="#BEEF74"/>
<path d="M431.6 70.3549C433.175 66.984 438.896 63.0049 438.896 63.0049L439.346 65.2507C436.683 67.9549 432.758 73.709 433.104 77.8507C433.446 81.9882 431.6 70.359 431.6 70.359V70.3549Z" fill="#BEEF74"/>
<path d="M427.221 92.6796C427.213 96.0255 426.179 100.05 424.821 103.092C424.704 103.355 424.458 103.992 424.079 103.934C424.479 99.3255 426.796 92.588 427.221 92.6796Z" fill="#469B5B"/>
<path d="M415.758 120.351C416.55 120.184 416.217 120.759 416.358 121.209C416.963 123.126 419.967 131.934 419.079 133.28C418.821 133.676 417.558 133.576 417.346 134.342C416.917 134.313 416.433 134.397 416.021 134.342C416.138 133.288 414.425 133.58 413.638 133.534C413.588 132.609 413.621 131.642 413.638 130.709C413.688 128.472 413.817 126.13 413.638 123.842C413.921 123.838 414.504 124.33 414.696 123.947C414.842 123.655 415.717 120.697 415.754 120.342L415.758 120.351Z" fill="#408F4D"/>
<path d="M401.354 114.363C400.821 112.713 400.088 111.43 399.825 109.638C399.467 111.159 399.208 116.463 398.829 119.563C398.533 119.559 398.117 118.701 397.963 118.426C396.371 115.592 395.238 112.996 395.546 109.634C396.025 104.405 398.1 101.971 396.767 95.9881C396.138 93.1631 393.188 88.2881 390.588 86.9922C389.921 86.6589 389.163 86.5339 389.421 87.5422C390.925 89.6714 392.504 91.5339 393.463 94.0131C394.375 96.3797 394.779 98.9714 394.388 101.492C393.9 104.634 392.5 107.53 391.858 110.634C391.217 113.738 391.758 116.58 393.388 119.292C394.133 120.538 394.996 121.763 395.813 122.98C396.242 123.621 396.646 124.284 397.071 124.93C398.446 127.017 397.833 129.026 397.404 129.621C397.958 129.626 403.492 129.663 403.488 129.792C403.558 128.184 403.442 126.313 404.1 124.83C403.633 121.196 402.475 117.826 401.354 114.359V114.363Z" fill="#80CA59"/>
<path d="M415.85 119.051C414.913 117.734 413.658 116.613 413.063 115.105C412.292 113.159 412.758 110.955 413.333 108.943C414.079 106.33 414.992 103.768 415.908 101.213L415.854 101.076C415.904 100.993 415.946 100.909 415.963 100.83C416.908 96.5675 416.113 92.4009 414.633 88.3925C413.888 86.3634 412.813 84.4842 412.038 82.5009C410.725 79.1342 410.742 76.4925 411.471 73.0092C411.846 71.2259 412.488 69.5259 412.954 67.7675C412.921 67.7175 412.946 67.3967 412.833 67.1967C412.442 66.4842 411.504 65.6384 411.758 64.7759C412.038 63.83 413.292 64.9217 413.713 65.2842C413.892 64.33 414.108 63.3925 414.171 62.4134C414.425 58.405 414.017 54.155 411.883 50.705C411.775 50.705 411.504 50.5134 411.2 50.5384C410.283 50.605 410.5 51.5384 410.508 52.2592C410.596 57.3217 411.983 60.78 409.596 65.5217C405.671 73.3092 405.258 76.8342 405.971 81.705C406.683 86.5384 409.55 90.9384 409.658 95.8259C409.758 100.455 407.392 104.772 406.817 109.363C406.467 112.159 407.158 116.034 407.158 116.034C409.654 120.643 412.746 125.23 413.013 130.48L417.254 129.793L417.788 124.709C417.696 122.684 417.013 120.688 415.846 119.047L415.85 119.051Z" fill="#80CA59"/>
<path d="M408.15 118.776C407.258 115.638 405.346 112.884 404.563 109.701C403.95 107.205 404.367 104.53 405.383 102.205C405.783 101.288 406.263 100.409 406.629 99.4799C406.942 98.6799 407.175 97.8257 407.175 96.9591C407.175 96.7007 406.904 94.7632 406.7 94.7466C406.204 92.7132 404.971 90.9382 403.513 89.4882C402.404 88.3882 401.138 87.5174 400.15 86.2841C399.496 85.4632 398.967 84.4966 398.758 83.4507C398.542 82.3466 398.946 81.5716 399.308 80.5466C400.867 76.1757 399.725 71.0882 397.533 67.1507C397.313 66.7591 396.908 66.3132 396.508 66.5049C396.254 66.6257 396.171 66.9466 396.138 67.2299C395.929 68.9257 396.513 70.6091 396.717 72.3091C396.958 74.3382 396.654 76.4132 396.013 78.3507C395.6 79.5841 395.05 80.7966 394.775 82.0549C394.671 82.5257 394.608 83.0007 394.604 83.4841C394.588 85.1882 395.321 86.7466 396.063 88.2341C396.792 89.6966 396.571 91.4132 396.704 93.0049C396.838 94.6382 397.042 96.2632 397.317 97.8757C397.846 100.997 398.642 104.072 399.713 107.051C399.713 107.097 399.708 107.142 399.704 107.188C399.379 113.588 404.375 118.917 404.417 129.947C406.113 130.076 407.721 130.317 409.454 130.413C409.563 129.476 409.921 124.976 408.158 118.772L408.15 118.776ZM402.163 100.992C401.483 99.1424 400.275 93.8841 400.133 92.5799C400.5 92.1632 402.021 94.7507 402.142 95.0174C402.188 95.1216 402.646 96.1341 402.825 96.7007C402.833 96.8174 402.85 96.9424 402.879 97.0757C403.125 98.1632 403.258 99.5341 402.163 100.992Z" fill="#BEEF74"/>
<path d="M420.892 82.809C421.275 82.7674 421.563 83.6507 421.683 83.9424C422.829 86.7424 423.813 90.709 423.638 93.7382C423.375 98.3299 421.367 102.805 421.342 107.38C421.333 108.751 421.821 111.051 421.5 112.272C421.492 112.309 421.308 112.422 421.271 112.576C420.546 115.659 419.85 118.892 420.583 122.042C419.538 122.826 417.038 125.084 416.154 126.076C415.767 125.472 415.613 124.617 415.467 123.905C414.917 121.267 414.946 119.58 415.238 116.926C415.5 114.551 415.875 112.838 416.613 110.567C417.192 108.78 419.938 102.747 420.046 102.501C421.296 99.6924 422.25 95.9757 422.258 92.8882C422.267 90.3132 421.396 87.0215 421.038 84.359C420.967 83.8507 420.95 83.309 420.883 82.809H420.892Z" fill="#408F4D"/>
<path d="M444.446 108.601C443.271 110.318 441.796 112.834 440.809 114.697C440.65 114.997 440.725 115.376 440.213 115.263C440.679 113.005 440.946 108.055 441.588 105.768C442.171 103.697 442.817 101.409 443.808 99.5342C443.796 101.509 444.275 106.634 444.446 108.597V108.601Z" fill="#408F4D"/>
<path d="M439.596 48.8256C437.879 44.3423 436.7 42.8881 435.946 38.0923C435.629 36.0756 435.483 34.0339 435.538 31.9839C435.558 31.2423 435.754 29.8839 435.338 29.2131C435.063 28.7756 434.463 28.6964 434.046 28.9548C432.958 29.6256 432.717 32.1839 432.5 33.3006C432.096 35.3631 431.917 37.4089 432.054 39.5173C432.471 45.7506 434.371 48.2423 436.313 54.0464C437.138 56.5089 437.692 59.0714 438.146 61.6464C439.529 69.5006 436.367 73.6173 434.971 77.4673C434.429 78.9631 433.888 80.4589 433.454 81.9881C433.213 82.8423 433 83.7214 433.025 84.6089C433.075 86.5381 434.088 88.2714 434.117 90.2131C434.15 92.3131 433.775 94.4173 433.346 96.4631C432.275 101.551 430.654 106.555 429.6 111.655C429.242 111.734 429.354 111.605 429.258 111.455C428.104 109.638 427.113 106.651 426.854 104.521C426.767 103.813 426.6 101.138 426.7 100.396C426.038 101.476 425.542 107.063 425.479 108.48C425.338 111.842 426.296 115.088 427.004 118.326C429.021 117.396 431.121 116.642 433.113 115.688C433.363 111.317 434.013 107.371 435.683 103.334C436.15 102.201 438.504 97.9923 438.571 97.2881C438.646 96.5298 438.258 95.5048 438.142 94.7506C437.942 93.4548 437.75 92.1839 437.708 90.8673C437.625 88.2464 437.938 85.6214 438.483 83.0589C439.129 80.0381 440.1 77.1048 441.138 74.2048C442.079 71.5756 442.538 68.9173 442.675 66.1048C442.963 60.2048 441.696 54.3048 439.596 48.8256Z" fill="#408F4D"/>
<path d="M399.675 55.8252C400.304 57.0919 400.783 58.5294 401.479 59.8085C403.504 63.5502 406.283 66.746 407.908 70.7169C409.625 74.9002 410.413 79.4002 411.013 83.8669C411.392 86.696 410.867 89.5835 411.521 92.3627C413.783 101.942 416.129 99.9544 416.617 110.567C415.883 112.838 415.504 114.55 415.242 116.925C412.625 109.984 415.038 107.354 411.633 101.796C410.529 99.9919 409.971 97.971 409.513 95.896C408.8 92.6752 408.325 89.3127 407.963 86.0377C407.467 81.5877 406.679 77.271 405.229 73.0294C403.821 68.9127 401.096 65.4919 399.671 61.4085C398.996 59.471 398.442 57.2669 398.45 55.2044C399.004 55.1002 399.425 55.3294 399.671 55.8252H399.675Z" fill="#BEEF74"/>
<path d="M432.954 84.6674C433.092 85.9883 433.838 87.6216 434.004 89.1049C434.275 91.5216 433.842 94.0883 433.342 96.4549C432.271 101.542 430.65 106.547 429.596 111.647C429.238 111.726 429.35 111.597 429.254 111.447C428.1 109.63 427.108 106.642 426.85 104.513C427.3 103.763 427.446 102.838 427.767 102.034C428.796 99.4299 430.771 96.1424 430.825 93.2633C430.838 92.6883 430.538 92.1299 430.517 91.4883C430.483 90.4174 431.421 88.5716 431.808 87.4508C432.038 86.7883 432.167 86.0758 432.4 85.4174C432.479 85.1924 432.613 84.5758 432.958 84.6674H432.954Z" fill="#BEEF74"/>
<path d="M425.779 59.8551C426.262 60.5551 426.346 61.9218 426.483 62.6509C426.704 63.8343 426.846 65.0301 426.917 66.2301C427.2 71.3051 425.875 76.2926 424.942 81.2384C424.925 81.3343 424.858 81.4926 424.879 81.5926C424.483 81.5843 424.446 80.5093 424.279 80.2176C423.383 78.6593 422.613 76.7301 421.654 75.2051C421.483 74.9343 421.821 74.4134 421.921 74.1551C422.117 73.6426 422.271 73.1134 422.429 72.5926C422.738 71.5718 423.013 70.5426 423.246 69.501C423.738 67.3093 424.075 65.0676 424.217 62.8218C424.271 61.9718 424.108 60.8884 424.496 60.1051C424.683 59.7301 425.162 59.2634 425.575 59.6259C425.65 59.6884 425.717 59.7676 425.775 59.8551H425.779Z" fill="#469B5B"/>
<path d="M431.817 69.8633C432.388 69.8592 432.3 70.1217 432.388 70.5342C433.442 75.6883 432.304 81.6758 430.033 86.3633C429.875 86.6925 429.425 87.7092 428.988 87.6967C429.033 87.6967 428.654 86.0675 428.617 85.9342C428.442 85.3133 428.329 84.6717 428.25 84.03C427.817 80.555 428.354 76.7092 429.838 73.5342C430.354 72.43 431.067 71.4425 431.604 70.355C431.683 70.1967 431.758 70.03 431.821 69.8633H431.817Z" fill="#BEEF74"/>
<path d="M431.429 53.1883C431.475 53.1342 431.533 53.0883 431.583 53.0342L431.429 53.1883Z" fill="#73DECD"/>
<path d="M434.021 50.8632C434.071 50.8298 434.113 50.7382 434.175 50.709L434.021 50.8632Z" fill="#73DECD"/>
<path d="M435.017 50.6669C435.071 50.7002 435.113 50.7461 435.15 50.8002C435.434 51.2419 435.384 51.8377 435.167 52.3211C434.95 52.8044 434.6 53.2044 434.284 53.6252C431.496 57.3294 432.221 61.4002 433.4 65.5419C434.079 67.9252 434.671 70.3544 434.788 72.8419C434.992 77.1627 433.992 81.4336 432.571 85.4794C430.696 90.8169 428.071 95.8211 426.654 101.338C425.95 104.079 425.517 106.909 425.55 109.746C425.588 112.692 426.367 115.467 426.992 118.321C425.984 118.784 424.446 119.613 423.479 120.184C423.292 120.296 421.65 113.575 421.575 113.017C421.188 110.063 421.229 107.054 421.704 104.113C422.088 101.742 422.75 99.4252 423.192 97.0669C424.042 92.5002 423.296 88.2252 421.646 83.9294C419.346 77.9377 415.946 72.4544 412.604 67.0211C412.217 66.3919 411.517 65.5836 411.754 64.7794C412.034 63.8336 413.288 64.9252 413.709 65.2877C415.763 67.0669 417.45 69.2377 419.034 71.4502C420.742 73.8377 422.438 76.3169 423.859 78.9252C425.267 81.5169 426.625 84.4419 427.025 87.4044C427.079 87.8086 427.017 88.3669 427.3 88.7044C427.613 89.0752 428.359 87.3544 428.463 87.1377C429.846 84.2211 431.254 81.2377 431.663 77.9877C432.046 74.9669 431.8 71.8586 430.904 68.9502C429.984 65.9627 429.088 62.7919 429.2 59.6336C429.271 57.6919 429.829 55.7002 430.763 54.0044C431.246 53.1252 431.854 52.2919 432.629 51.6544C433.013 51.3377 434.434 50.3086 435.013 50.6711L435.017 50.6669Z" fill="#4EAB60"/>
<path d="M432.833 115.646C433.4 110.08 434.883 104.613 437.204 99.5421C438.592 96.5129 440.275 93.6212 441.471 90.5087C442.938 86.6796 443.638 82.5671 443.721 78.4587C443.721 78.2837 443.729 78.1004 443.821 77.9546C444.013 77.6546 444.488 77.6837 444.746 77.9212C445.004 78.1587 445.108 78.5296 445.188 78.8754C446.121 83.0171 445.7 87.4587 444.013 91.3462C442.863 93.9921 441.158 96.3504 439.875 98.9337C437.617 103.484 436.713 108.721 437.321 113.78L432.833 115.646Z" fill="#BEEF74"/>
<path d="M451.504 111.459V254.68H-2.07915C-2.08331 236.546 -2.06665 135.042 -2.07915 116.909C21.9334 120.671 44.7834 122.363 63.6334 130.567C74.8125 135.434 84.1125 141.434 97.975 144.596C111.358 147.651 125.308 149.113 139.192 150.909C150.342 152.351 158.579 155.788 169.892 156.821C210.546 160.538 274.358 146.863 312.492 144.826C341.642 143.267 363.25 146.159 391.821 139.805C417.671 134.051 426.729 124.209 444.721 114.488C446.638 113.451 449.108 112.167 451.504 111.459Z" fill="#1A4252"/>
<path d="M451.467 99.9167C451.467 106.171 451.467 112.421 451.471 118.675C437.138 124.963 425.863 133.496 410.888 139.242C380.863 150.762 346.217 147.875 312.463 149.675C290.104 150.871 268.083 154.054 246.038 156.442C233.833 157.762 221.575 158.962 209.225 159.721C196.671 160.492 185.454 161.542 172.854 159.721C162.917 158.287 153.363 156.033 143.408 154.638C127.054 152.342 109.6 152.35 94.2751 148.288C81.7084 144.954 71.6251 139.158 60.5792 134.313C41.9667 126.146 20.2959 120.604 -2.04578 116.846C-2.01661 114.908 -1.99161 112.967 -1.96244 111.029C19.7667 111.725 41.7001 112.442 62.6459 115.908C75.0542 117.962 87.0917 121.046 97.6626 125.412C108.592 129.929 115.658 136.454 126.954 140.596C134.833 143.487 142.15 144.942 151.075 146.229C163.6 148.038 175.279 150.033 188.283 150.188C201.35 150.346 214.379 149.387 227.204 147.979C253.333 145.108 278.821 140.333 305.25 138.379C321.729 137.162 338.292 137.246 354.633 139.083C356.258 139.267 357.958 139.462 359.546 139.192C364.054 138.417 367.104 134.558 370.404 132.721C374.713 130.325 379.65 128.333 384.85 126.667C391.608 124.496 398.763 122.788 406.029 121.304C412.604 119.963 419.021 119.471 423.913 116.275C428.158 113.504 430.75 109.983 435.158 107.292C439.863 104.417 445.608 101.862 451.475 99.875V99.9083L451.467 99.9167Z" fill="#225366"/>
<path d="M68.7542 73.4384V73.0176C68.9958 73.3717 68.8208 73.2467 68.7542 73.4384Z" fill="#73DECD"/>
</g>
</svg>
